<svg xmlns="http://www.w3.org/2000/svg" xmlns:xlink="http://www.w3.org/1999/xlink" width="1920" zoomAndPan="magnify" viewBox="0 0 1440 809.999993" height="1080" preserveAspectRatio="xMidYMid meet" version="1.0"><defs><clipPath id="fa3b9350f8"><path d="M 410.753906 42 L 1029.503906 42 L 1029.503906 767.894531 L 410.753906 767.894531 Z M 410.753906 42 " clip-rule="nonzero"/></clipPath><clipPath id="5accda6270"><path d="M 0.753906 1 L 619.121094 1 L 619.121094 725.894531 L 0.753906 725.894531 Z M 0.753906 1 " clip-rule="nonzero"/></clipPath><clipPath id="a16dba80b9"><rect x="0" width="620" y="0" height="726"/></clipPath></defs><rect x="-144" width="1728" fill="#ffffff" y="-80.999999" height="971.999992" fill-opacity="1"/><rect x="-144" width="1728" fill="#ffffff" y="-80.999999" height="971.999992" fill-opacity="1"/><g clip-path="url(#fa3b9350f8)"><g transform="matrix(1, 0, 0, 1, 410, 42)"><g clip-path="url(#a16dba80b9)"><path fill="#3d2b1f" d="M 256.886719 416.734375 C 236.550781 416.734375 220.007812 400.191406 220.007812 379.855469 C 220.007812 359.519531 236.550781 342.976562 256.886719 342.976562 C 277.21875 342.976562 293.765625 359.519531 293.765625 379.855469 C 293.765625 400.191406 277.21875 416.734375 256.886719 416.734375 Z M 256.886719 354.472656 C 242.894531 354.472656 231.507812 365.859375 231.507812 379.855469 C 231.507812 393.847656 242.894531 405.234375 256.886719 405.234375 C 270.878906 405.234375 282.265625 393.847656 282.265625 379.855469 C 282.265625 365.859375 270.878906 354.472656 256.886719 354.472656 Z M 256.886719 354.472656 " fill-opacity="1" fill-rule="nonzero"/><g clip-path="url(#5accda6270)"><path fill="#3d2b1f" d="M 111.761719 481.839844 C 111.523438 483.347656 110.695312 484.695312 109.460938 485.589844 L 79.011719 507.722656 C 75.628906 509.300781 72.90625 509 70.980469 506.453125 L 2.019531 411.566406 C 1.121094 410.332031 0.75 408.792969 0.988281 407.285156 C 1.226562 405.78125 2.054688 404.429688 3.289062 403.535156 L 33.738281 381.40625 C 36.304688 379.539062 39.902344 380.109375 41.769531 382.675781 L 47.355469 390.363281 L 207.046875 274.296875 L 198.179688 262.101562 C 197.285156 260.867188 196.914062 259.328125 197.152344 257.820312 C 197.390625 256.316406 198.214844 254.964844 199.453125 254.070312 L 337.773438 153.535156 L 328.300781 140.5 C 326.433594 137.929688 327.003906 134.335938 329.574219 132.46875 L 508.738281 2.25 C 511.304688 0.382812 514.902344 0.949219 516.769531 3.519531 L 617.992188 142.785156 C 618.890625 144.019531 619.257812 145.558594 619.023438 147.066406 C 618.785156 148.570312 617.957031 149.921875 616.722656 150.816406 L 437.554688 281.039062 C 436.566406 281.757812 435.382812 282.140625 434.175781 282.140625 C 433.875 282.140625 433.574219 282.113281 433.277344 282.070312 C 431.769531 281.832031 430.421875 281.003906 429.523438 279.769531 L 420.054688 266.738281 L 324.941406 335.867188 C 333.164062 348.550781 337.964844 363.648438 337.964844 379.855469 C 337.964844 400.195312 330.421875 418.792969 318.003906 433.042969 L 338.121094 463.019531 C 342.429688 469.441406 342.847656 477.664062 339.210938 484.484375 C 337.109375 488.425781 333.859375 491.496094 330.003906 493.394531 L 476.128906 716.664062 C 477.289062 718.429688 477.382812 720.6875 476.378906 722.546875 C 475.375 724.402344 473.429688 725.5625 471.320312 725.5625 L 440.476562 725.5625 C 438.539062 725.5625 436.730469 724.582031 435.667969 722.960938 L 286.832031 495.542969 L 276.148438 495.542969 L 276.148438 719.808594 C 276.148438 722.984375 273.574219 725.558594 270.398438 725.558594 L 243.375 725.558594 C 240.199219 725.558594 237.625 722.984375 237.625 719.808594 L 237.625 495.542969 L 226.941406 495.542969 L 78.105469 722.957031 C 77.042969 724.582031 75.234375 725.558594 73.292969 725.558594 L 42.449219 725.558594 C 40.339844 725.558594 38.398438 724.402344 37.394531 722.542969 C 36.386719 720.6875 36.484375 718.429688 37.640625 716.660156 L 183.765625 493.394531 C 179.910156 491.496094 176.664062 488.425781 174.5625 484.484375 C 170.925781 477.664062 171.339844 469.441406 175.648438 463.019531 L 195.765625 433.039062 C 190.621094 427.132812 186.316406 420.476562 183.039062 413.257812 L 105.144531 469.871094 L 110.734375 477.5625 C 111.628906 478.792969 112 480.332031 111.761719 481.839844 Z M 35.847656 394.085938 L 14.699219 409.457031 L 76.902344 495.042969 L 98.050781 479.671875 L 92.464844 471.984375 C 92.460938 471.980469 92.464844 471.980469 92.460938 471.980469 Z M 435.445312 268.359375 L 605.3125 144.898438 L 510.847656 14.929688 L 340.980469 138.390625 Z M 413.292969 257.4375 L 344.535156 162.835938 L 210.863281 259.992188 L 240.296875 300.488281 C 245.652344 299.371094 251.203125 298.777344 256.886719 298.777344 C 281.261719 298.777344 303.140625 309.605469 318.015625 326.6875 Z M 443.589844 714.0625 L 460.6875 714.0625 L 317.671875 495.542969 L 300.574219 495.542969 Z M 249.125 714.0625 L 264.648438 714.0625 L 264.648438 495.542969 L 249.125 495.542969 Z M 53.085938 714.0625 L 70.183594 714.0625 L 213.199219 495.542969 L 196.097656 495.542969 Z M 185.199219 469.429688 C 183.234375 472.359375 183.050781 475.964844 184.710938 479.074219 C 186.367188 482.1875 189.464844 484.046875 192.992188 484.046875 L 320.78125 484.046875 C 324.308594 484.046875 327.402344 482.1875 329.0625 479.074219 C 330.722656 475.964844 330.539062 472.359375 328.574219 469.429688 L 309.699219 441.296875 C 295.5 453.519531 277.046875 460.933594 256.886719 460.933594 C 236.726562 460.933594 218.273438 453.519531 204.074219 441.296875 Z M 256.886719 449.433594 C 295.253906 449.433594 326.464844 418.222656 326.464844 379.855469 C 326.464844 341.488281 295.253906 310.277344 256.886719 310.277344 C 218.519531 310.277344 187.304688 341.488281 187.304688 379.855469 C 187.304688 418.222656 218.519531 449.433594 256.886719 449.433594 Z M 178.917969 402.039062 C 176.90625 394.984375 175.808594 387.546875 175.808594 379.855469 C 175.808594 345.109375 197.78125 315.410156 228.558594 303.894531 L 213.808594 283.597656 L 54.117188 399.664062 L 98.386719 460.574219 Z M 178.917969 402.039062 " fill-opacity="1" fill-rule="nonzero"/></g></g></g></g></svg>